<svg width="25" height="24" viewBox="0 0 25 24" fill="none" xmlns="http://www.w3.org/2000/svg">
<path d="M10.2241 3C8.46166 3 6.69932 3.67063 5.35827 5.01204C2.67615 7.69485 2.67615 12.0633 5.35827 14.7461C6.69932 16.0876 8.45727 16.7585 10.2333 16.7585C12.0093 16.7585 13.7672 16.0876 15.1083 14.7461C17.7722 12.0633 17.772 7.69485 15.0899 5.01204C13.7488 3.67063 11.9865 3 10.2241 3ZM10.2152 4.06957C11.7012 4.06957 13.1872 4.63123 14.3108 5.77323C16.5761 8.03912 16.576 11.7191 14.3289 13.985C12.0636 16.2508 8.38456 16.2508 6.11926 13.985C3.85397 11.7191 3.85397 8.03912 6.11926 5.77323C7.24285 4.64935 8.72917 4.06957 10.2152 4.06957ZM15.8445 14.9819C15.7063 14.9819 15.5704 15.0364 15.4707 15.1452C15.2532 15.3627 15.2532 15.707 15.4707 15.9064L15.9238 16.3595C15.815 16.5771 15.7606 16.8128 15.7606 17.0666C15.7606 17.5016 15.9236 17.9186 16.2317 18.2268L18.5515 20.5107C18.8777 20.837 19.2942 21 19.7111 21C20.1279 21 20.5448 20.8369 20.871 20.5288C21.5053 19.8943 21.5053 18.8612 20.871 18.2268L18.5515 15.9064C18.2434 15.5982 17.8265 15.4351 17.3916 15.4351C17.1379 15.4351 16.9022 15.4896 16.6848 15.5983L16.2317 15.1452C16.123 15.0364 15.9827 14.9819 15.8445 14.9819ZM17.3916 16.5047C17.5366 16.5047 17.6815 16.5591 17.7721 16.6679L20.0735 18.9699C20.291 19.1874 20.291 19.5317 20.0735 19.7311C19.856 19.9486 19.5119 19.9486 19.3125 19.7311L17.0111 17.4472C16.9024 17.3384 16.8479 17.1935 16.8479 17.0485C16.8479 16.9035 16.9024 16.7585 17.0111 16.6679C17.1198 16.5591 17.2466 16.5047 17.3916 16.5047Z" fill="#047AC2"/>
</svg>
